<svg width="129" height="129" viewBox="0 0 129 129" fill="none" xmlns="http://www.w3.org/2000/svg">
<path d="M44.5 112.5H84.5C87.1667 112.5 88.5 113.833 88.5 116.5C88.5 119.167 87.1667 120.5 84.5 120.5H44.5C41.8334 120.5 40.5 119.167 40.5 116.5C40.5 113.833 41.8334 112.5 44.5 112.5ZM38.916 16.5L26.476 72.5H102.524L90.084 16.5H38.916ZM35.716 8.5H93.292C94.2025 8.50036 95.0856 8.81132 95.7955 9.38152C96.5053 9.95171 96.9994 10.747 97.196 11.636L111.42 75.636C111.549 76.2204 111.546 76.8264 111.41 77.4092C111.274 77.9921 111.009 78.537 110.634 79.0038C110.259 79.4706 109.785 79.8473 109.245 80.1063C108.705 80.3652 108.115 80.4998 107.516 80.5H21.484C20.8855 80.4998 20.2946 80.3652 19.755 80.1063C19.2154 79.8473 18.7408 79.4706 18.3661 79.0038C17.9915 78.537 17.7264 77.9921 17.5903 77.4092C17.4543 76.8264 17.4507 76.2204 17.58 75.636L31.804 11.636C32.0007 10.747 32.4948 9.95171 33.2046 9.38152C33.9144 8.81132 34.7975 8.50036 35.708 8.5H35.716Z" fill="#FFD233"/>
<path d="M84.5 72.5002C87.1667 72.5002 88.5 73.8335 88.5 76.5002V92.5002C88.5 95.1669 87.1667 96.5002 84.5 96.5002C81.8333 96.5002 80.5 95.1669 80.5 92.5002V76.5002C80.5 73.8335 81.8333 72.5002 84.5 72.5002ZM60.5 72.4922H68.5V120.5H60.5V72.4922Z" fill="#FFD233"/>
</svg>
