<svg width="129" height="129" viewBox="0 0 129 129" fill="none" xmlns="http://www.w3.org/2000/svg">
<path d="M27.1667 101.833H34.6333L80.6333 55.8332L73.1667 48.3665L27.1667 94.3665V101.833ZM103.433 48.0998L80.7667 25.6998L88.2333 18.2332C90.2778 16.1887 92.7898 15.1665 95.7693 15.1665C98.7489 15.1665 101.259 16.1887 103.3 18.2332L110.767 25.6998C112.811 27.7443 113.878 30.2118 113.967 33.1025C114.056 35.9932 113.078 38.4589 111.033 40.4998L103.433 48.0998ZM95.7 55.9665L39.1667 112.5H16.5V89.8332L73.0333 33.2998L95.7 55.9665ZM76.9 52.0998L73.1667 48.3665L80.6333 55.8332L76.9 52.0998Z" fill="#FFD233"/>
</svg>
