<svg width="129" height="129" viewBox="0 0 129 129" fill="none" xmlns="http://www.w3.org/2000/svg">
<path d="M64.5001 5.8335C89.5134 5.8335 109.833 32.1268 109.833 64.5002C109.833 96.9268 89.5134 123.167 64.5001 123.167C39.4867 123.167 19.1667 96.9268 19.1667 64.5002C19.1667 32.1268 39.4867 5.8335 64.5001 5.8335ZM64.5001 16.5002C45.3534 16.5002 29.8334 37.9935 29.8334 64.5002C29.8334 91.0068 45.3534 112.5 64.5001 112.5C83.6467 112.5 99.1667 91.0068 99.1667 64.5002C99.1667 37.9935 83.6467 16.5002 64.5001 16.5002ZM44.7134 55.3268L61.9934 37.9935L67.6467 43.6468L50.3667 60.9802L44.7134 55.3268ZM46.9001 78.4202L77.0867 48.2335L82.7401 53.8335L52.5534 84.0735L46.9001 78.4202Z" fill="#FFD233"/>
</svg>
